<svg width="469" height="132" viewBox="0 0 469 132" fill="none" xmlns="http://www.w3.org/2000/svg">
<path d="M169.28 54.7319H173.489V77.2716H169.28V54.7319Z" fill="white"/>
<path d="M205.054 54.7319V77.2716H201.59L189.093 62.0101V77.2716H184.916V54.7319H188.38L200.878 69.9934V54.7319H205.054Z" fill="white"/>
<path d="M221.048 58.2733H213.536V54.7319H232.765V58.2733H225.254V77.2684H221.045V58.2733H221.048Z" fill="white"/>
<path d="M258.247 73.7591V77.2684H241.251V54.7319H257.796V58.2412H245.459V64.0997H256.403V67.5449H245.459V73.7591H258.247Z" fill="white"/>
<path d="M283.08 77.2684L278.449 70.6696C278.256 70.6921 277.963 70.7017 277.576 70.7017H272.462V77.2684H268.253V54.7319H277.576C279.539 54.7319 281.25 55.0524 282.707 55.6966C284.163 56.3408 285.281 57.2638 286.058 58.4656C286.835 59.6674 287.225 61.0936 287.225 62.7472C287.225 64.4426 286.809 65.904 285.977 67.1251C285.146 68.3493 283.954 69.2595 282.4 69.862L287.611 77.2684H283.08ZM281.559 59.4302C280.609 58.6579 279.216 58.2701 277.383 58.2701H272.462V67.2533H277.383C279.216 67.2533 280.609 66.8623 281.559 66.0771C282.51 65.2951 282.984 64.183 282.984 62.744C282.984 61.3115 282.507 60.2058 281.559 59.4302Z" fill="white"/>
<path d="M311.926 72.0509H300.592L298.359 77.2684H294.021L304.221 54.7287H308.365L318.597 77.2684H314.195L311.926 72.0509ZM310.534 68.7691L306.261 58.9174L302.02 68.7691H310.534Z" fill="white"/>
<path d="M330.753 76.0922C328.906 75.0955 327.462 73.7142 326.415 71.9548C325.368 70.1953 324.845 68.2083 324.845 65.997C324.845 63.7856 325.374 61.8018 326.431 60.0391C327.488 58.2797 328.941 56.8984 330.785 55.9017C332.631 54.905 334.697 54.405 336.985 54.405C338.841 54.405 340.536 54.7255 342.067 55.3697C343.598 56.0139 344.893 56.9465 345.954 58.1707L343.234 60.7154C341.593 58.9559 339.576 58.0746 337.178 58.0746C335.625 58.0746 334.233 58.4111 333.002 59.0873C331.771 59.7635 330.811 60.7025 330.121 61.9044C329.428 63.1062 329.083 64.4682 329.083 65.9937C329.083 67.5193 329.428 68.8813 330.121 70.0831C330.811 71.2849 331.771 72.224 333.002 72.9002C334.233 73.5764 335.625 73.9161 337.178 73.9161C339.573 73.9161 341.59 73.0252 343.234 71.2433L345.954 73.82C344.897 75.0442 343.595 75.9768 342.051 76.621C340.507 77.2652 338.809 77.5857 336.953 77.5857C334.665 77.5921 332.596 77.0921 330.753 76.0922Z" fill="white"/>
<path d="M359.647 58.2733H352.135V54.7319H371.367V58.2733H363.855V77.2684H359.647V58.2733Z" fill="white"/>
<path d="M379.849 54.7319H384.058V77.2716H379.849V54.7319Z" fill="white"/>
<path d="M416.046 54.7319L406.172 77.2716H402.027L392.121 54.7319H396.687L404.232 72.1182L411.84 54.7319H416.046Z" fill="white"/>
<path d="M440.747 73.7591V77.2684H423.751V54.7319H440.296V58.2412H427.96V64.0997H438.904V67.5449H427.96V73.7591H440.747Z" fill="white"/>
<path d="M119.713 101.933H95.2175C92.633 101.933 90.535 99.8497 90.535 97.2762C90.535 94.7059 92.6297 92.6196 95.2175 92.6196H119.713C122.297 92.6196 124.395 94.7027 124.395 97.2762C124.392 99.8465 122.297 101.933 119.713 101.933Z" fill="white"/>
<path d="M61.8214 101.933C59.2368 101.933 57.1389 99.8497 57.1389 97.2762V63.7536C57.1389 61.1833 59.2336 59.0969 61.8214 59.0969C64.4059 59.0969 66.5039 61.1801 66.5039 63.7536V97.2762C66.5039 99.8465 64.4059 101.933 61.8214 101.933Z" fill="white"/>
<path d="M72.1822 69.9229C74.7667 69.9229 76.8646 72.006 76.8646 74.5795C76.8646 77.1498 74.7699 79.2362 72.1822 79.2362H37.7742C34.5387 79.2362 31.474 77.6498 29.7338 74.9385C27.9452 72.1535 27.768 68.7115 29.2504 65.763L46.5108 31.4263C47.6677 29.1252 50.4778 28.1958 52.7917 29.3432C55.1055 30.4937 56.0401 33.2883 54.8864 35.5894L38.2995 68.5737C37.9869 69.1922 38.4413 69.9197 39.1374 69.9197H72.1822V69.9229Z" fill="white"/>
<path d="M83.9447 86.649C81.5729 85.4279 80.7125 82.4795 82.0531 80.1816C85.5238 74.2238 89.7293 69.9742 100.474 69.9742C106.629 69.9742 112.201 66.5866 115.008 61.132C116.206 58.8085 116.806 56.2927 116.79 53.6551C116.741 44.7392 109.429 37.5187 100.47 37.5187C100.441 37.5187 100.412 37.5187 100.38 37.5187C95.3883 37.5443 90.8154 39.7813 87.7764 43.5342C86.4101 45.2199 84.0769 45.7776 82.1207 44.8258L81.9951 44.7649C79.3525 43.4765 78.5759 40.0826 80.4128 37.7943C82.1594 35.6246 84.2606 33.7402 86.6389 32.2243C90.7284 29.622 95.4624 28.2311 100.335 28.2054C107.215 28.1734 113.693 30.7821 118.556 35.5638C123.419 40.3454 126.119 46.7519 126.155 53.6006C126.177 57.6868 125.204 61.7602 123.341 65.3752C118.923 73.9546 110.161 79.2842 100.474 79.2842C94.4827 79.2842 92.6748 80.4476 90.1547 84.8222C88.9108 86.9887 86.1716 87.7963 83.9447 86.649Z" fill="white"/>
<path d="M78.5018 103.795C82.1219 103.795 85.0566 100.876 85.0566 97.2762C85.0566 93.6761 82.1219 90.7576 78.5018 90.7576C74.8816 90.7576 71.947 93.6761 71.947 97.2762C71.947 100.876 74.8816 103.795 78.5018 103.795Z" fill="#2A2AFC"/>
</svg>
