<svg width="471" height="369" viewBox="0 0 471 369" fill="none" xmlns="http://www.w3.org/2000/svg">
<path d="M440.06 359.782H322.214C309.777 359.782 299.694 349.612 299.694 337.066C299.694 324.521 309.777 314.351 322.214 314.351H440.06C452.497 314.351 462.579 324.521 462.579 337.066C462.579 349.6 452.497 359.782 440.06 359.782Z" fill="white"/>
<path d="M161.548 359.782C149.111 359.782 139.028 349.612 139.028 337.067V173.489C139.028 160.944 149.111 150.774 161.548 150.774C173.985 150.774 184.067 160.944 184.067 173.489V337.067C184.079 349.601 173.985 359.782 161.548 359.782Z" fill="white"/>
<path d="M211.362 203.569C223.799 203.569 233.881 213.738 233.881 226.284C233.881 238.829 223.799 248.999 211.362 248.999H45.8189C30.2527 248.999 15.5051 241.262 7.12761 228.015C-1.4742 214.417 -2.33775 197.618 4.79491 183.229L87.8411 15.6916C93.4036 4.46965 106.929 -0.0779462 118.065 5.53302C129.19 11.144 133.699 24.7868 128.136 36.02L48.3535 196.996C46.8507 200.016 49.0376 203.569 52.3796 203.569H211.362Z" fill="white"/>
<path d="M267.919 285.199C256.502 279.238 252.364 264.859 258.812 253.638C275.511 224.565 295.732 203.818 347.444 203.818C377.062 203.818 403.854 187.279 417.368 160.672C423.133 149.326 426.015 137.052 425.948 124.178C425.712 80.6704 390.531 45.4435 347.432 45.4435C347.287 45.4435 347.152 45.4435 347.006 45.4435C322.984 45.5679 300.98 56.4958 286.379 74.7993C279.807 83.0347 268.569 85.7497 259.16 81.1003L258.555 80.7949C245.837 74.5051 242.102 57.9437 250.951 46.7784C259.351 36.1899 269.455 26.9929 280.906 19.5946C300.565 6.91336 323.343 0.125897 346.771 0.00146052C379.866 -0.156914 411.043 12.5696 434.437 35.9071C457.832 59.2447 470.807 90.5009 470.998 123.929C471.11 143.873 466.433 163.738 457.461 181.385C436.198 223.252 394.041 249.26 347.444 249.26C318.621 249.26 309.93 254.927 297.807 276.285C291.807 286.851 278.629 290.788 267.919 285.199Z" fill="white"/>
<path d="M241.735 368.866C259.152 368.866 273.271 354.624 273.271 337.055C273.271 319.487 259.152 305.244 241.735 305.244C224.318 305.244 210.198 319.487 210.198 337.055C210.198 354.624 224.318 368.866 241.735 368.866Z" fill="#2A2AFC"/>
</svg>
