<svg width="40" height="40" viewBox="0 0 40 40" fill="none" xmlns="http://www.w3.org/2000/svg">
<g clip-path="url(#clip0_6867_4385)">
<path fill-rule="evenodd" clip-rule="evenodd" d="M37.9107 8.05694C38.5314 8.68155 38.977 9.4582 39.2032 10.3092C40.0396 13.4501 40.0396 20.0001 40.0396 20.0001C40.0396 20.0001 40.0396 26.5501 39.2032 29.691C38.977 30.542 38.5314 31.3186 37.9107 31.9432C37.2901 32.5678 36.5163 33.0185 35.6668 33.2501C32.5396 34.091 20.0396 34.091 20.0396 34.091C20.0396 34.091 7.53955 34.091 4.41228 33.2501C3.56277 33.0185 2.78898 32.5678 2.16836 31.9432C1.54774 31.3186 1.10206 30.542 0.875915 29.691C0.0395509 26.5501 0.0395508 20.0001 0.0395508 20.0001C0.0395508 20.0001 0.0395509 13.4501 0.875915 10.3092C1.10206 9.4582 1.54774 8.68155 2.16836 8.05694C2.78898 7.43233 3.56277 6.98168 4.41228 6.75009C7.53955 5.90918 20.0396 5.90918 20.0396 5.90918C20.0396 5.90918 32.5396 5.90918 35.6668 6.75009C36.5163 6.98168 37.2901 7.43233 37.9107 8.05694ZM26.4032 20.0001L15.9487 14.0524V25.9479L26.4032 20.0001Z" fill="white"/>
</g>
<defs>
<clipPath id="clip0_6867_4385">
<rect width="40" height="40" fill="white"/>
</clipPath>
</defs>
</svg>
