<svg width="1000" height="343" viewBox="0 0 1000 343" fill="none" xmlns="http://www.w3.org/2000/svg">
<g clip-path="url(#clip0_6765_6876)">
<path d="M210.893 223.558C213.045 223.558 215.225 224.103 217.224 225.256C223.288 228.756 225.366 236.509 221.864 242.571L211.346 260.783C203.175 274.93 188.542 283.372 172.206 283.372C155.87 283.372 141.237 274.93 133.066 260.783L122.548 242.571C119.046 236.509 121.124 228.756 127.188 225.256C133.253 221.756 141.013 223.833 144.51 229.896L155.029 248.106C158.615 254.314 165.035 258.021 172.206 258.021C179.377 258.02 185.797 254.314 189.383 248.106L199.901 229.896C202.245 225.835 206.508 223.558 210.893 223.558ZM171.828 223.556C178.711 223.556 184.29 229.149 184.29 236.049C184.29 242.949 178.711 248.542 171.828 248.542C164.945 248.542 159.366 242.949 159.366 236.049C159.366 229.149 164.946 223.556 171.828 223.556Z" fill="#00676C"/>
<path d="M172.584 94.8364C179.466 94.8367 185.046 100.43 185.046 107.33C185.046 114.229 179.466 119.823 172.584 119.823C165.701 119.823 160.121 114.229 160.121 107.33C160.121 100.43 165.701 94.8364 172.584 94.8364ZM172.206 60.0063C188.542 60.0064 203.175 68.4489 211.346 82.5952L221.864 100.807C225.366 106.87 223.288 114.622 217.224 118.123C211.159 121.623 203.398 119.546 199.901 113.483L189.383 95.272C185.797 89.0646 179.377 85.3589 172.206 85.3589C165.035 85.3589 158.615 89.0646 155.029 95.272L144.51 113.483C142.166 117.543 137.904 119.821 133.52 119.821C131.367 119.821 129.187 119.275 127.188 118.123C121.124 114.622 119.046 106.87 122.548 100.807L133.066 82.5952C141.237 68.4489 155.87 60.0063 172.206 60.0063Z" fill="#CF5530"/>
<path d="M101.122 122.285C107.17 118.775 114.903 120.858 118.395 126.937C121.886 133.018 119.814 140.797 113.767 144.303L95.6006 154.848C89.4086 158.442 85.7119 164.879 85.7119 172.068C85.7121 179.257 89.4088 185.693 95.6006 189.288L113.767 199.833C117.817 202.183 120.089 206.456 120.089 210.852C120.089 213.009 119.544 215.195 118.395 217.198C114.903 223.278 107.17 225.361 101.122 221.851L82.9561 211.305C68.8453 203.114 60.423 188.445 60.4229 172.068C60.4229 155.691 68.8451 141.022 82.9561 132.831L101.122 122.285ZM107.629 159.196C114.511 159.196 120.091 164.79 120.091 171.689C120.091 178.589 114.511 184.182 107.629 184.183C100.746 184.183 95.1661 178.589 95.166 171.689C95.166 164.79 100.746 159.196 107.629 159.196Z" fill="#6D612E"/>
<path d="M225.261 126.937C228.753 120.858 236.486 118.775 242.534 122.285L260.7 132.831C274.811 141.022 283.233 155.691 283.233 172.068C283.233 188.445 274.811 203.114 260.7 211.305L242.534 221.851C236.486 225.361 228.753 223.278 225.261 217.198C221.77 211.118 223.842 203.339 229.889 199.833L248.055 189.288C254.247 185.693 257.944 179.257 257.944 172.068C257.944 164.879 254.247 158.442 248.055 154.848L229.889 144.303C225.839 141.953 223.567 137.68 223.567 133.285C223.567 131.127 224.111 128.941 225.261 126.937ZM236.027 159.953C242.909 159.953 248.49 165.546 248.49 172.446C248.49 179.346 242.91 184.939 236.027 184.939C229.144 184.939 223.565 179.346 223.565 172.446C223.565 165.547 229.144 159.953 236.027 159.953Z" fill="#F59B45"/>
<path d="M805.89 211.235C805.89 213.456 805.324 215.706 804.131 217.768C800.507 224.027 792.48 226.171 786.203 222.557L767.347 211.702C752.7 203.27 743.958 188.17 743.958 171.311C743.958 154.452 752.7 139.351 767.347 130.919L786.203 120.064C792.48 116.45 800.507 118.594 804.131 124.853C807.755 131.112 805.605 139.12 799.327 142.729L780.472 153.584C774.044 157.285 770.208 163.91 770.208 171.311C770.208 178.711 774.044 185.337 780.472 189.037L799.327 199.892C803.532 202.311 805.89 206.71 805.89 211.235Z" fill="#F59B45"/>
<path fill-rule="evenodd" clip-rule="evenodd" d="M726.127 149.837C719.048 149.837 713.31 144.093 713.31 137.007C713.31 129.921 719.048 124.177 726.127 124.177C733.205 124.177 738.944 129.921 738.944 137.007C738.944 144.093 733.205 149.837 726.127 149.837ZM480.884 161.788L470.033 180.667C466.42 186.952 468.564 194.988 474.821 198.617C481.077 202.245 489.077 200.092 492.69 193.807L503.541 174.928C507.24 168.493 513.863 164.652 521.26 164.652C528.657 164.651 535.28 168.493 538.978 174.928L549.828 193.806C552.342 198.18 556.981 200.553 561.678 200.368C566.386 200.564 571.04 198.19 573.559 193.807L584.41 174.928C588.109 168.493 594.732 164.652 602.129 164.652C609.526 164.651 616.149 168.493 619.847 174.928L630.697 193.806C630.887 194.137 631.09 194.456 631.304 194.764C639.767 209.229 654.757 217.85 671.488 217.85C688.344 217.849 703.436 209.094 711.863 194.434L722.714 175.555C726.326 169.271 724.183 161.234 717.926 157.606C711.67 153.978 703.669 156.131 700.057 162.415L689.206 181.294C685.507 187.73 678.884 191.57 671.487 191.571C664.09 191.571 657.467 187.73 653.768 181.295L642.918 162.417C642.728 162.086 642.526 161.766 642.313 161.459C633.848 146.994 618.858 138.373 602.128 138.374C585.272 138.374 570.179 147.129 561.753 161.788L561.694 161.891L561.635 161.789C553.207 147.125 538.116 138.373 521.259 138.374C504.402 138.374 489.31 147.129 480.884 161.788Z" fill="#CF5530"/>
<path d="M402.568 176.611C409.659 176.611 415.408 182.374 415.408 189.483C415.408 196.592 409.659 202.355 402.568 202.355C395.477 202.355 389.728 196.592 389.728 189.483C389.728 182.374 395.477 176.611 402.568 176.611ZM402.568 139.509C419.385 139.509 434.448 148.273 442.859 162.956L453.687 181.86C457.292 188.152 455.153 196.199 448.91 199.832C442.666 203.466 434.678 201.31 431.079 195.017L420.25 176.114C416.559 169.671 409.95 165.824 402.568 165.824C395.186 165.824 388.577 169.671 384.886 176.114L374.057 195.017C371.644 199.231 367.257 201.596 362.744 201.596C360.528 201.596 358.283 201.029 356.226 199.832C349.983 196.199 347.844 188.152 351.449 181.86L362.278 162.956C370.689 148.273 385.751 139.509 402.568 139.509Z" fill="#6D612E"/>
<path d="M870.091 176.611C877.182 176.611 882.931 182.374 882.931 189.483C882.931 196.592 877.182 202.355 870.091 202.355C863 202.355 857.251 196.592 857.251 189.483C857.251 182.374 863 176.611 870.091 176.611ZM870.091 139.509C886.908 139.509 901.97 148.273 910.381 162.956L921.21 181.86C924.815 188.152 922.676 196.199 916.433 199.832C910.189 203.466 902.201 201.31 898.602 195.017L887.772 176.114C884.081 169.671 877.473 165.824 870.091 165.824C862.708 165.824 856.1 169.671 852.409 176.114L841.58 195.017C839.167 199.231 834.78 201.596 830.267 201.596C828.051 201.596 825.806 201.029 823.749 199.832C817.506 196.199 815.367 188.152 818.972 181.86L829.8 162.956C838.211 148.273 853.274 139.509 870.091 139.509Z" fill="#00676C"/>
<path d="M385.278 252.677H383.07C383.007 252.324 382.891 252.012 382.722 251.739C382.552 251.463 382.342 251.23 382.09 251.038C381.838 250.846 381.551 250.702 381.228 250.607C380.909 250.507 380.565 250.457 380.195 250.457C379.538 250.457 378.955 250.618 378.448 250.94C377.94 251.258 377.543 251.726 377.255 252.343C376.968 252.956 376.824 253.706 376.824 254.591C376.824 255.492 376.968 256.251 377.255 256.868C377.547 257.481 377.944 257.945 378.448 258.26C378.955 258.57 379.536 258.725 380.189 258.725C380.551 258.725 380.89 258.679 381.205 258.587C381.523 258.492 381.809 258.352 382.06 258.168C382.316 257.984 382.531 257.757 382.704 257.489C382.881 257.221 383.003 256.914 383.07 256.569L385.278 256.581C385.195 257.14 385.016 257.665 384.741 258.156C384.469 258.647 384.113 259.08 383.672 259.456C383.231 259.827 382.716 260.119 382.125 260.33C381.535 260.537 380.88 260.64 380.16 260.64C379.097 260.64 378.149 260.4 377.314 259.921C376.48 259.442 375.823 258.75 375.343 257.846C374.863 256.941 374.623 255.856 374.623 254.591C374.623 253.322 374.865 252.238 375.349 251.337C375.833 250.432 376.492 249.74 377.326 249.261C378.16 248.782 379.105 248.542 380.16 248.542C380.833 248.542 381.458 248.634 382.037 248.818C382.615 249.002 383.131 249.273 383.584 249.629C384.036 249.982 384.408 250.415 384.699 250.929C384.994 251.438 385.187 252.021 385.278 252.677Z" fill="#50575E"/>
<path d="M403.906 260.479V248.703H408.44C409.369 248.703 410.148 248.861 410.778 249.175C411.411 249.489 411.889 249.93 412.212 250.497C412.539 251.061 412.702 251.718 412.702 252.47C412.702 253.225 412.537 253.88 412.206 254.436C411.88 254.988 411.398 255.415 410.76 255.718C410.122 256.017 409.339 256.167 408.411 256.167H405.182V254.396H408.115C408.659 254.396 409.103 254.323 409.45 254.177C409.796 254.028 410.052 253.811 410.217 253.528C410.386 253.24 410.471 252.887 410.471 252.47C410.471 252.052 410.386 251.695 410.217 251.4C410.048 251.101 409.79 250.875 409.444 250.722C409.097 250.564 408.651 250.486 408.104 250.486H406.097V260.479H403.906ZM410.152 255.143L413.145 260.479H410.701L407.761 255.143H410.152Z" fill="#50575E"/>
<path d="M431.341 260.479V248.703H439.204V250.492H433.531V253.689H438.797V255.477H433.531V258.691H439.251V260.479H431.341Z" fill="#50575E"/>
<path d="M459.614 260.479H457.277L461.533 248.703H464.236L468.498 260.479H466.161L462.932 251.118H462.837L459.614 260.479ZM459.691 255.862H466.066V257.575H459.691V255.862Z" fill="#50575E"/>
<path d="M484.722 250.492V248.703H494.367V250.492H490.631V260.479H488.458V250.492H484.722Z" fill="#50575E"/>
<path d="M515.04 248.703V260.479H512.85V248.703H515.04Z" fill="#50575E"/>
<path d="M543.97 248.703V260.479H542.022L536.325 252.458H536.225V260.479H534.035V248.703H535.995L541.685 256.73H541.792V248.703H543.97Z" fill="#50575E"/>
<path d="M571.079 252.464C570.98 252.153 570.844 251.875 570.671 251.63C570.502 251.381 570.297 251.168 570.057 250.992C569.821 250.816 569.55 250.683 569.243 250.595C568.936 250.503 568.601 250.457 568.239 250.457C567.59 250.457 567.011 250.616 566.504 250.934C565.996 251.253 565.597 251.72 565.305 252.337C565.018 252.951 564.874 253.698 564.874 254.58C564.874 255.469 565.018 256.222 565.305 256.839C565.593 257.457 565.992 257.926 566.504 258.248C567.015 258.566 567.609 258.725 568.286 258.725C568.9 258.725 569.432 258.61 569.88 258.38C570.333 258.15 570.681 257.825 570.925 257.403C571.169 256.977 571.291 256.479 571.291 255.908L571.787 255.983H568.505V254.315H573.41V255.73C573.41 256.738 573.19 257.61 572.749 258.346C572.308 259.082 571.702 259.649 570.931 260.048C570.16 260.443 569.274 260.64 568.275 260.64C567.161 260.64 566.183 260.397 565.341 259.91C564.502 259.419 563.847 258.723 563.375 257.823C562.907 256.918 562.673 255.845 562.673 254.603C562.673 253.652 562.81 252.803 563.086 252.056C563.365 251.308 563.755 250.674 564.255 250.152C564.754 249.627 565.341 249.229 566.014 248.956C566.687 248.68 567.419 248.542 568.21 248.542C568.879 248.542 569.502 248.638 570.081 248.83C570.659 249.018 571.173 249.286 571.622 249.635C572.074 249.984 572.446 250.398 572.737 250.877C573.029 251.356 573.219 251.885 573.31 252.464H571.079Z" fill="#50575E"/>
<path d="M623.246 252.677H621.038C620.975 252.324 620.859 252.012 620.69 251.739C620.521 251.463 620.31 251.23 620.058 251.038C619.806 250.846 619.519 250.702 619.196 250.607C618.878 250.507 618.533 250.457 618.163 250.457C617.506 250.457 616.924 250.618 616.416 250.94C615.908 251.258 615.511 251.726 615.224 252.343C614.936 252.956 614.793 253.706 614.793 254.591C614.793 255.492 614.936 256.251 615.224 256.868C615.515 257.481 615.912 257.945 616.416 258.26C616.924 258.57 617.504 258.725 618.157 258.725C618.52 258.725 618.858 258.679 619.173 258.587C619.492 258.492 619.777 258.352 620.029 258.168C620.285 257.984 620.499 257.757 620.672 257.489C620.849 257.221 620.971 256.914 621.038 256.569L623.246 256.581C623.163 257.14 622.984 257.665 622.709 258.156C622.437 258.647 622.081 259.08 621.64 259.456C621.2 259.827 620.684 260.119 620.094 260.33C619.503 260.537 618.848 260.64 618.128 260.64C617.065 260.64 616.117 260.4 615.283 259.921C614.448 259.442 613.791 258.75 613.311 257.846C612.831 256.941 612.591 255.856 612.591 254.591C612.591 253.322 612.833 252.238 613.317 251.337C613.801 250.432 614.46 249.74 615.294 249.261C616.129 248.782 617.073 248.542 618.128 248.542C618.801 248.542 619.427 248.634 620.005 248.818C620.584 249.002 621.099 249.273 621.552 249.629C622.004 249.982 622.376 250.415 622.667 250.929C622.963 251.438 623.155 252.021 623.246 252.677Z" fill="#50575E"/>
<path d="M652.677 254.591C652.677 255.86 652.433 256.947 651.945 257.851C651.461 258.752 650.8 259.442 649.962 259.921C649.128 260.4 648.181 260.64 647.123 260.64C646.064 260.64 645.116 260.4 644.277 259.921C643.443 259.438 642.782 258.746 642.294 257.846C641.81 256.941 641.568 255.856 641.568 254.591C641.568 253.322 641.81 252.238 642.294 251.337C642.782 250.432 643.443 249.74 644.277 249.261C645.116 248.782 646.064 248.542 647.123 248.542C648.181 248.542 649.128 248.782 649.962 249.261C650.8 249.74 651.461 250.432 651.945 251.337C652.433 252.238 652.677 253.322 652.677 254.591ZM650.476 254.591C650.476 253.698 650.332 252.945 650.045 252.332C649.761 251.714 649.368 251.249 648.864 250.934C648.36 250.616 647.78 250.457 647.123 250.457C646.465 250.457 645.885 250.616 645.381 250.934C644.877 251.249 644.482 251.714 644.195 252.332C643.911 252.945 643.77 253.698 643.77 254.591C643.77 255.484 643.911 256.24 644.195 256.857C644.482 257.47 644.877 257.936 645.381 258.254C645.885 258.568 646.465 258.725 647.123 258.725C647.78 258.725 648.36 258.568 648.864 258.254C649.368 257.936 649.761 257.47 650.045 256.857C650.332 256.24 650.476 255.484 650.476 254.591Z" fill="#50575E"/>
<path d="M671.371 248.703H674.051L677.64 257.236H677.782L681.371 248.703H684.051V260.479H681.95V252.389H681.837L678.496 260.445H676.926L673.585 252.372H673.473V260.479H671.371V248.703Z" fill="#50575E"/>
<path d="M703.059 248.703H705.739L709.328 257.236H709.47L713.059 248.703H715.739V260.479H713.638V252.389H713.525L710.184 260.445H708.614L705.273 252.372H705.161V260.479H703.059V248.703Z" fill="#50575E"/>
<path d="M742.368 248.703H744.558V256.397C744.558 257.24 744.353 257.982 743.944 258.622C743.539 259.262 742.968 259.762 742.232 260.123C741.496 260.479 740.636 260.657 739.653 260.657C738.665 260.657 737.803 260.479 737.067 260.123C736.331 259.762 735.761 259.262 735.355 258.622C734.95 257.982 734.747 257.24 734.747 256.397V248.703H736.937V256.218C736.937 256.709 737.047 257.146 737.268 257.529C737.492 257.913 737.807 258.214 738.212 258.432C738.618 258.647 739.098 258.754 739.653 258.754C740.208 258.754 740.688 258.647 741.093 258.432C741.502 258.214 741.817 257.913 742.038 257.529C742.258 257.146 742.368 256.709 742.368 256.218V248.703Z" fill="#50575E"/>
<path d="M773.497 248.703V260.479H771.549L765.852 252.458H765.752V260.479H763.562V248.703H765.522L771.212 256.73H771.318V248.703H773.497Z" fill="#50575E"/>
<path d="M794.696 248.703V260.479H792.506V248.703H794.696Z" fill="#50575E"/>
<path d="M813.16 250.492V248.703H822.806V250.492H819.069V260.479H816.897V250.492H813.16Z" fill="#50575E"/>
<path d="M843.478 248.703V260.479H841.288V248.703H843.478Z" fill="#50575E"/>
<path d="M862.473 260.479V248.703H870.336V250.492H864.663V253.689H869.929V255.477H864.663V258.691H870.383V260.479H862.473Z" fill="#50575E"/>
<path d="M895.764 251.941C895.709 251.438 895.476 251.047 895.067 250.768C894.662 250.488 894.134 250.348 893.485 250.348C893.029 250.348 892.637 250.415 892.31 250.549C891.984 250.683 891.734 250.865 891.561 251.095C891.388 251.325 891.299 251.588 891.295 251.883C891.295 252.128 891.352 252.341 891.466 252.521C891.584 252.701 891.744 252.855 891.944 252.981C892.145 253.104 892.367 253.207 892.611 253.292C892.855 253.376 893.101 253.447 893.349 253.505L894.483 253.781C894.939 253.884 895.378 254.024 895.799 254.2C896.224 254.377 896.604 254.599 896.938 254.867C897.277 255.136 897.545 255.459 897.741 255.839C897.938 256.218 898.036 256.663 898.036 257.173C898.036 257.863 897.855 258.47 897.493 258.996C897.131 259.517 896.608 259.925 895.923 260.22C895.242 260.512 894.418 260.657 893.45 260.657C892.509 260.657 891.693 260.515 891 260.232C890.311 259.948 889.772 259.534 889.382 258.99C888.997 258.446 888.788 257.782 888.757 257H890.911C890.943 257.411 891.073 257.752 891.301 258.024C891.529 258.296 891.826 258.499 892.192 258.633C892.562 258.768 892.975 258.835 893.432 258.835C893.908 258.835 894.325 258.766 894.683 258.628C895.046 258.486 895.329 258.29 895.534 258.041C895.738 257.788 895.842 257.493 895.846 257.156C895.842 256.849 895.75 256.596 895.569 256.397C895.388 256.194 895.134 256.025 894.807 255.891C894.485 255.753 894.107 255.63 893.674 255.523L892.299 255.178C891.303 254.929 890.516 254.551 889.937 254.045C889.363 253.535 889.075 252.859 889.075 252.015C889.075 251.322 889.268 250.714 889.654 250.193C890.044 249.671 890.573 249.267 891.242 248.979C891.911 248.688 892.669 248.542 893.515 248.542C894.373 248.542 895.124 248.688 895.77 248.979C896.419 249.267 896.929 249.668 897.299 250.181C897.668 250.691 897.859 251.277 897.871 251.941H895.764Z" fill="#50575E"/>
</g>
<defs>
<clipPath id="clip0_6765_6876">
<rect width="1000" height="343" fill="white"/>
</clipPath>
</defs>
</svg>
