<svg width="48" height="48" viewBox="0 0 48 48" fill="none" xmlns="http://www.w3.org/2000/svg">
<path d="M7.72193 3.19995C5.23542 3.19995 3.2002 5.23517 3.2002 7.72169V40.2782C3.2002 42.7647 5.23542 44.7999 7.72193 44.7999H40.2785C42.765 44.7999 44.8002 42.7647 44.8002 40.2782V7.72169C44.8002 5.23517 42.765 3.19995 40.2785 3.19995H7.72193ZM7.72193 5.00865H40.2785C41.7873 5.00865 42.9915 6.2128 42.9915 7.72169V40.2782C42.9915 41.7871 41.7873 42.9913 40.2785 42.9913H7.72193C6.21304 42.9913 5.00889 41.7871 5.00889 40.2782V7.72169C5.00889 6.2128 6.21304 5.00865 7.72193 5.00865ZM24.0002 6.81734L23.442 8.00783L22.1915 8.19859L23.0958 9.1259L22.8821 10.4347L24.0002 9.81653L25.1183 10.4347L24.9045 9.1259L25.8089 8.19859L24.5583 8.00783L24.0002 6.81734ZM16.0872 9.19126L15.529 10.3817L14.2785 10.5725L15.1828 11.4998L14.9691 12.8086L16.0872 12.1904L17.2052 12.8086L16.9915 11.4998L17.8958 10.5725L16.6453 10.3817L16.0872 9.19126ZM31.9132 9.19126L31.3551 10.3817L30.1045 10.5725L31.0089 11.4998L30.7952 12.8086L31.9132 12.1904L33.0313 12.8086L32.8176 11.4998L33.7219 10.5725L32.4714 10.3817L31.9132 9.19126ZM24.0002 14.0521C21.5137 14.0521 19.4785 16.0873 19.4785 18.5739V20.3826H18.5741C17.5856 20.3826 16.7654 21.2027 16.7654 22.1913V30.3304C16.7654 31.3189 17.5856 32.1391 18.5741 32.1391H29.4263C30.4148 32.1391 31.235 31.3189 31.235 30.3304V22.1913C31.235 21.2027 30.4148 20.3826 29.4263 20.3826H28.5219V18.5739C28.5219 16.0873 26.4867 14.0521 24.0002 14.0521ZM10.7741 14.5043L10.216 15.6948L8.96541 15.8855L9.86976 16.8129L9.65604 18.1217L10.7741 17.5035L11.8922 18.1217L11.6785 16.8129L12.5828 15.8855L11.3323 15.6948L10.7741 14.5043ZM37.2263 14.5043L36.6681 15.6948L35.4176 15.8855L36.3219 16.8129L36.1082 18.1217L37.2263 17.5035L38.3444 18.1217L38.1306 16.8129L39.035 15.8855L37.7844 15.6948L37.2263 14.5043ZM24.0002 15.8608C25.5091 15.8608 26.7132 17.065 26.7132 18.5739V20.3826H21.2872V18.5739C21.2872 17.065 22.4913 15.8608 24.0002 15.8608ZM8.62628 22.1913L8.06813 23.3817L6.81759 23.5725L7.72193 24.4998L7.50821 25.8086L8.62628 25.1904L9.74435 25.8086L9.53063 24.4998L10.435 23.5725L9.18443 23.3817L8.62628 22.1913ZM18.5741 22.1913H29.4263V30.3304H18.5741V22.1913ZM39.3741 22.1913L38.816 23.3817L37.5654 23.5725L38.4698 24.4998L38.256 25.8086L39.3741 25.1904L40.4922 25.8086L40.2785 24.4998L41.1828 23.5725L39.9323 23.3817L39.3741 22.1913ZM24.0002 24C23.501 24 23.0958 24.4051 23.0958 24.9043V27.6173C23.0958 28.1165 23.501 28.5217 24.0002 28.5217C24.4994 28.5217 24.9045 28.1165 24.9045 27.6173V24.9043C24.9045 24.4051 24.4994 24 24.0002 24ZM10.7741 29.8782L10.216 31.0687L8.96541 31.2595L9.86976 32.1868L9.65604 33.4956L10.7741 32.8774L11.8922 33.4956L11.6785 32.1868L12.5828 31.2595L11.3323 31.0687L10.7741 29.8782ZM37.1132 29.8782L36.5551 31.0687L35.3045 31.2595L36.2089 32.1868L35.9952 33.4956L37.1132 32.8774L38.2313 33.4956L38.0176 32.1868L38.9219 31.2595L37.6714 31.0687L37.1132 29.8782ZM16.0872 35.1913L15.529 36.3817L14.2785 36.5725L15.1828 37.4998L14.9691 38.8086L16.0872 38.1904L17.2052 38.8086L16.9915 37.4998L17.8958 36.5725L16.6453 36.3817L16.0872 35.1913ZM31.9132 35.1913L31.3551 36.3817L30.1045 36.5725L31.0089 37.4998L30.7952 38.8086L31.9132 38.1904L33.0313 38.8086L32.8176 37.4998L33.7219 36.5725L32.4714 36.3817L31.9132 35.1913ZM24.0002 37.5652L23.442 38.7557L22.1915 38.9464L23.0958 39.8737L22.8821 41.1826L24.0002 40.5644L25.1183 41.1826L24.9045 39.8737L25.8089 38.9464L24.5583 38.7557L24.0002 37.5652Z" fill="#7FA0E5"/>
</svg>
