<svg width="48" height="48" viewBox="0 0 48 48" fill="none" xmlns="http://www.w3.org/2000/svg">
<path d="M15.5947 2.40503C13.2295 2.40503 11.3051 4.3293 11.3051 6.69464V23.5595H5.99342C4.4532 23.5595 3.2002 24.8125 3.2002 26.3528V40.3296C3.2002 41.8699 4.4532 43.123 5.99342 43.123H10.6279L12.2861 45.255C12.6386 45.7081 13.3248 45.7086 13.6776 45.255L15.3358 43.123H19.9702C21.5106 43.123 22.7636 41.8698 22.7636 40.3296V35.8995H24.1934L27.3566 39.9665C27.7091 40.4197 28.3953 40.4201 28.7481 39.9665L31.9113 35.8995H40.51C42.8754 35.8995 44.7998 33.9751 44.7998 31.6097V6.69464C44.7998 4.3293 42.8754 2.40503 40.51 2.40503H15.5947ZM15.5946 4.16791H40.5098C41.9032 4.16791 43.0367 5.30135 43.0367 6.69464V31.6099H43.0369C43.0369 33.0032 41.9034 34.1368 40.51 34.1368H31.4801C31.2081 34.1368 30.9514 34.2624 30.7844 34.477L28.0523 37.9897L25.3203 34.477C25.1533 34.2623 24.8965 34.1368 24.6245 34.1368H22.7636V26.3528C22.7636 24.8125 21.5105 23.5595 19.9702 23.5595H13.0678V6.69464C13.0678 5.30135 14.2013 4.16791 15.5946 4.16791ZM16.5938 12.9823C16.1069 12.9823 15.7123 13.3769 15.7123 13.8637C15.7123 14.3505 16.1069 14.7452 16.5938 14.7452H26.2896C26.7763 14.7452 27.171 14.3505 27.171 13.8637C27.171 13.3769 26.7763 12.9823 26.2896 12.9823H16.5938ZM16.5938 16.508C16.1069 16.508 15.7123 16.9027 15.7123 17.3895C15.7123 17.8763 16.1069 18.2709 16.5938 18.2709H39.5111C39.9979 18.2709 40.3926 17.8763 40.3926 17.3895C40.3926 16.9027 39.9979 16.508 39.5111 16.508H16.5938ZM16.5938 20.0338C16.1069 20.0338 15.7123 20.4284 15.7123 20.9152C15.7123 21.4021 16.1069 21.7967 16.5938 21.7967H39.5111C39.9979 21.7967 40.3926 21.4021 40.3926 20.9152C40.3926 20.4284 39.9979 20.0338 39.5111 20.0338H16.5938ZM5.99342 25.3224H19.9702C20.5385 25.3224 21.0008 25.7846 21.0008 26.3528V35.0182V40.3298H21.0009C21.0009 40.8979 20.5386 41.3601 19.9704 41.3601H14.9049C14.6329 41.3601 14.3761 41.4858 14.209 41.7005L12.9819 43.2783L11.7546 41.7005C11.5876 41.4858 11.331 41.3603 11.0589 41.3603H5.99342C5.42525 41.3603 4.96307 40.8979 4.96307 40.3298V26.3528C4.96307 25.7846 5.42525 25.3224 5.99342 25.3224Z" fill="#7FA0E5"/>
</svg>
