<svg width="48" height="48" viewBox="0 0 48 48" fill="none" xmlns="http://www.w3.org/2000/svg">
<path d="M20.5067 1.91992C15.2735 1.91992 11.9103 4.33683 10.8598 6.9318C6.73811 7.80822 3.83984 12.3174 3.83984 17.278C3.83984 19.32 4.43224 21.3644 5.45797 23.6343C4.62013 24.6593 3.83984 25.9447 3.83984 27.8399C3.83984 30.3239 5.46629 32.717 8.36422 34.0499C7.45409 36.1676 7.64921 38.2102 8.73359 39.6637C9.85991 41.1733 11.7526 41.9589 13.7848 42.1143C14.4009 43.7325 15.5106 44.8566 16.7398 45.3918C18.1399 46.0013 19.5723 46.0799 20.5067 46.0799C21.9353 46.0799 23.1878 45.4066 24.0017 44.3624C24.8151 45.4005 26.0639 46.0696 27.4855 46.0799H27.4873C28.3707 46.0863 29.7974 46.0057 31.2092 45.3974C32.4276 44.8725 33.5353 43.7673 34.1698 42.1912C35.7045 42.1416 37.2923 41.9143 38.638 41.1562C40.1499 40.3044 41.2798 38.6919 41.2798 36.4799C41.2798 35.615 40.9681 34.8167 40.5992 34.0143C41.832 33.4014 42.8033 32.6169 43.3348 31.648C44.0048 30.4268 44.1598 29.0879 44.1598 27.8399C44.1598 25.9264 43.2561 24.7753 42.3786 23.8349C43.4197 21.5653 44.1938 19.3715 44.1598 17.263C44.0706 11.662 40.296 7.73019 36.2023 6.9168C35.2901 4.51883 32.6961 1.91992 27.493 1.91992C26.1834 1.91992 24.9111 2.25634 24.1086 3.29055C24.069 3.34155 24.0368 3.39873 23.9998 3.4518C23.9628 3.39873 23.9307 3.34155 23.8911 3.29055C23.0886 2.25634 21.8162 1.91992 20.5067 1.91992ZM20.5067 3.83992C21.5425 3.83992 22.0163 4.00494 22.3742 4.46617C22.7321 4.9274 23.0398 5.96279 23.0398 7.85805V13.2787C23.0227 13.3823 23.0227 13.4881 23.0398 13.5918V17.2799H20.1598V12.4799H16.1398C15.7392 11.3689 14.6813 10.5599 13.4398 10.5599C11.8606 10.5599 10.5598 11.8607 10.5598 13.4399C10.5598 15.0191 11.8606 16.3199 13.4398 16.3199C14.6813 16.3199 15.7392 15.511 16.1398 14.3999H18.2398V19.1999H23.0398V26.8799H16.3198V32.8199C15.2088 33.2206 14.3998 34.2785 14.3998 35.5199C14.3998 37.0991 15.7006 38.3999 17.2798 38.3999C18.8591 38.3999 20.1598 37.0991 20.1598 35.5199C20.1598 34.2785 19.3509 33.2206 18.2398 32.8199V28.7999H23.0398V35.3587C23.0227 35.4623 23.0227 35.5681 23.0398 35.6718V41.5987C23.0398 43.1697 22.0225 44.1599 20.5067 44.1599C19.6978 44.1599 18.5081 44.0671 17.5067 43.6312C16.5053 43.1952 15.6931 42.5126 15.3317 41.0493L15.1517 40.3199H14.3998C12.6393 40.3199 11.0721 39.5873 10.273 38.5162C9.4738 37.445 9.26226 36.045 10.4248 34.0912L11.0323 33.0693L9.90547 32.6905C6.9758 31.7059 5.75984 29.7369 5.75984 27.8399C5.75984 26.189 6.3726 25.3564 7.23922 24.4087L7.61234 23.9999H10.7398C11.1405 25.111 12.1984 25.9199 13.4398 25.9199C15.0191 25.9199 16.3198 24.6191 16.3198 23.0399C16.3198 21.4607 15.0191 20.1599 13.4398 20.1599C12.1984 20.1599 11.1405 20.9689 10.7398 22.0799H6.84734C6.11968 20.3073 5.75984 18.7787 5.75984 17.278C5.75984 12.8718 8.52028 9.01516 11.6361 8.63242L12.2698 8.55555L12.4423 7.94242C12.8721 6.43106 15.5895 3.83992 20.5067 3.83992ZM27.493 3.83992C32.4102 3.83992 34.094 6.1753 34.5973 7.94242L34.7717 8.55555L35.4036 8.63242C38.6405 9.03004 42.1605 12.3165 42.2398 17.2949C42.2683 19.0615 41.5456 21.2156 40.4136 23.5855L40.123 24.1949L40.5955 24.673C41.5962 25.6883 42.2398 26.2284 42.2398 27.8399C42.2398 28.9218 42.0923 29.9194 41.6511 30.7237C41.37 31.2361 40.9453 31.6883 40.3198 32.0793V27.8399H31.6798V24.7799C32.7909 24.3793 33.5998 23.3214 33.5998 22.0799C33.5998 20.5007 32.2991 19.1999 30.7198 19.1999C29.1406 19.1999 27.8398 20.5007 27.8398 22.0799C27.8398 23.3214 28.6488 24.3793 29.7598 24.7799V29.7599H38.3998V33.463C38.3667 33.6822 38.4104 33.9062 38.5236 34.0968L38.5255 34.0987C39.023 35.1143 39.3598 35.9755 39.3598 36.4799C39.3598 38.1079 38.7389 38.8955 37.6948 39.4837C36.6508 40.0719 35.1123 40.3199 33.5998 40.3199H32.848L32.668 41.0493C32.3091 42.5022 31.4711 43.1949 30.4498 43.6349C29.4286 44.0749 28.2338 44.1651 27.5005 44.1599C25.9765 44.1489 24.9598 43.1697 24.9598 41.5987V36.4799H28.9798C29.3805 37.591 30.4384 38.3999 31.6798 38.3999C33.2591 38.3999 34.5598 37.0991 34.5598 35.5199C34.5598 33.9407 33.2591 32.6399 31.6798 32.6399C30.4384 32.6399 29.3805 33.4489 28.9798 34.5599H24.9598V28.0012C24.977 27.8975 24.977 27.7917 24.9598 27.688V18.4012C24.977 18.2975 24.977 18.1917 24.9598 18.088V14.3999H32.8198C33.2205 15.511 34.2784 16.3199 35.5198 16.3199C37.0991 16.3199 38.3998 15.0191 38.3998 13.4399C38.3998 11.8607 37.0991 10.5599 35.5198 10.5599C34.2784 10.5599 33.2205 11.3689 32.8198 12.4799H24.9598V7.85805C24.9598 5.96279 25.2676 4.9274 25.6255 4.46617C25.9834 4.00494 26.4572 3.83992 27.493 3.83992ZM13.4398 12.4799C13.9619 12.4799 14.3599 12.8724 14.3886 13.3855C14.3865 13.4224 14.3865 13.4593 14.3886 13.4962C14.359 14.0084 13.9613 14.3999 13.4398 14.3999C12.8983 14.3999 12.4798 13.9815 12.4798 13.4399C12.4798 12.8984 12.8983 12.4799 13.4398 12.4799ZM35.5198 12.4799C36.0614 12.4799 36.4798 12.8984 36.4798 13.4399C36.4798 13.9815 36.0614 14.3999 35.5198 14.3999C34.9978 14.3999 34.5998 14.0075 34.5711 13.4943C34.5732 13.4575 34.5732 13.4205 34.5711 13.3837C34.6007 12.8714 34.9984 12.4799 35.5198 12.4799ZM30.7198 21.1199C31.2614 21.1199 31.6798 21.5384 31.6798 22.0799C31.6798 22.602 31.2874 23 30.7742 23.0287C30.7511 23.0272 30.728 23.0266 30.7048 23.0268C30.6911 23.0271 30.6773 23.0278 30.6636 23.0287C30.1514 22.9991 29.7598 22.6014 29.7598 22.0799C29.7598 21.5384 30.1783 21.1199 30.7198 21.1199ZM13.4398 22.0799C13.9814 22.0799 14.3998 22.4984 14.3998 23.0399C14.3998 23.5815 13.9814 23.9999 13.4398 23.9999C12.9178 23.9999 12.5198 23.6075 12.4911 23.0943C12.4932 23.0575 12.4932 23.0205 12.4911 22.9837C12.5207 22.4715 12.9184 22.0799 13.4398 22.0799ZM31.6798 34.5599C32.2214 34.5599 32.6398 34.9784 32.6398 35.5199C32.6398 36.0615 32.2214 36.4799 31.6798 36.4799C31.1578 36.4799 30.7598 36.0875 30.7311 35.5743C30.7332 35.5375 30.7332 35.5005 30.7311 35.4637C30.7607 34.9515 31.1584 34.5599 31.6798 34.5599ZM17.2255 34.5712C17.2623 34.5733 17.2992 34.5733 17.3361 34.5712C17.8483 34.6007 18.2398 34.9985 18.2398 35.5199C18.2398 36.0615 17.8214 36.4799 17.2798 36.4799C16.7383 36.4799 16.3198 36.0615 16.3198 35.5199C16.3198 34.9978 16.7123 34.5998 17.2255 34.5712Z" fill="#7FA0E5"/>
</svg>
