<svg width="48" height="48" viewBox="0 0 48 48" fill="none" xmlns="http://www.w3.org/2000/svg">
<path d="M6.03656 3.19995C4.48131 3.19995 3.2002 4.48107 3.2002 6.03631L3.2002 15.4909C3.2002 17.0461 4.48131 18.3272 6.03656 18.3272H8.87292V20.2181C8.87115 20.3434 8.8943 20.4678 8.94102 20.5841C8.98773 20.7003 9.05709 20.8061 9.14506 20.8954C9.23303 20.9846 9.33786 21.0554 9.45344 21.1038C9.56903 21.1522 9.69308 21.1771 9.81838 21.1771C9.94367 21.1771 10.0677 21.1522 10.1833 21.1038C10.2989 21.0554 10.4037 20.9846 10.4917 20.8954C10.5797 20.8061 10.649 20.7003 10.6957 20.5841C10.7425 20.4678 10.7656 20.3434 10.7638 20.2181V18.3272H15.4911C17.0463 18.3272 18.3275 17.0461 18.3275 15.4909V11.709L23.0547 11.709C23.18 11.7108 23.3044 11.6877 23.4207 11.641C23.5369 11.5942 23.6428 11.5249 23.732 11.4369C23.8212 11.3489 23.892 11.2441 23.9404 11.1285C23.9888 11.0129 24.0137 10.8889 24.0137 10.7636C24.0137 10.6383 23.9888 10.5142 23.9404 10.3987C23.892 10.2831 23.8212 10.1782 23.732 10.0903C23.6428 10.0023 23.5369 9.93294 23.4207 9.88623C23.3044 9.83951 23.18 9.81636 23.0547 9.81813H18.3275V6.03631C18.3275 4.48107 17.0463 3.19995 15.4911 3.19995L6.03656 3.19995ZM32.5093 3.19995C30.954 3.19995 29.6729 4.48107 29.6729 6.03631V9.81813L26.8366 9.81813C26.7113 9.81636 26.5869 9.83951 26.4706 9.88623C26.3544 9.93294 26.2486 10.0023 26.1593 10.0903C26.0701 10.1782 25.9993 10.2831 25.9509 10.3987C25.9025 10.5142 25.8776 10.6383 25.8776 10.7636C25.8776 10.8889 25.9025 11.0129 25.9509 11.1285C25.9993 11.2441 26.0701 11.3489 26.1593 11.4369C26.2486 11.5249 26.3544 11.5942 26.4706 11.641C26.5869 11.6877 26.7113 11.7108 26.8366 11.709H29.6729V15.4909C29.6729 17.0461 30.954 18.3272 32.5093 18.3272H36.2911V23.0545C36.2893 23.1798 36.3125 23.3042 36.3592 23.4204C36.4059 23.5367 36.4753 23.6425 36.5632 23.7317C36.6512 23.821 36.756 23.8918 36.8716 23.9402C36.9872 23.9885 37.1113 24.0134 37.2366 24.0134C37.3619 24.0134 37.4859 23.9885 37.6015 23.9402C37.7171 23.8918 37.8219 23.821 37.9099 23.7317C37.9978 23.6425 38.0672 23.5367 38.1139 23.4204C38.1606 23.3042 38.1838 23.1798 38.182 23.0545V18.3272H41.9638C43.5191 18.3272 44.8002 17.0461 44.8002 15.4909V6.03631C44.8002 4.48107 43.5191 3.19995 41.9638 3.19995L32.5093 3.19995ZM6.03656 5.09086L15.4911 5.09086C16.0253 5.09086 16.4366 5.5021 16.4366 6.03631V10.6048C16.4197 10.7069 16.4197 10.8111 16.4366 10.9132V15.4909C16.4366 16.0251 16.0253 16.4363 15.4911 16.4363H9.96426C9.91117 16.4274 9.85743 16.4231 9.8036 16.4234C9.7578 16.4244 9.71213 16.4287 9.66696 16.4363H6.03656C5.50235 16.4363 5.0911 16.0251 5.0911 15.4909L5.0911 6.03631C5.0911 5.5021 5.50235 5.09086 6.03656 5.09086ZM32.5093 5.09086H41.9638C42.498 5.09086 42.9093 5.5021 42.9093 6.03631V15.4909C42.9093 16.0251 42.498 16.4363 41.9638 16.4363H37.3824C37.3294 16.4274 37.2756 16.4231 37.2218 16.4234C37.176 16.4244 37.1303 16.4287 37.0851 16.4363H32.5093C31.9751 16.4363 31.5638 16.0251 31.5638 15.4909V6.03631C31.5638 5.5021 31.9751 5.09086 32.5093 5.09086ZM9.8036 23.0416C9.55318 23.0455 9.31453 23.1486 9.14005 23.3283C8.96556 23.508 8.86949 23.7495 8.87292 24L8.87292 29.6727H6.03656C4.48131 29.6727 3.2002 30.9538 3.2002 32.509L3.2002 41.9636C3.2002 43.5188 4.48131 44.8 6.03656 44.8H15.4911C17.0463 44.8 18.3275 43.5188 18.3275 41.9636V38.1818H21.1638C21.2891 38.1835 21.4135 38.1604 21.5298 38.1137C21.646 38.067 21.7518 37.9976 21.8411 37.9096C21.9303 37.8217 22.0011 37.7168 22.0495 37.6012C22.0979 37.4857 22.1228 37.3616 22.1228 37.2363C22.1228 37.111 22.0979 36.987 22.0495 36.8714C22.0011 36.7558 21.9303 36.651 21.8411 36.563C21.7518 36.475 21.646 36.4057 21.5298 36.359C21.4135 36.3122 21.2891 36.2891 21.1638 36.2909H18.3275V32.509C18.3275 30.9538 17.0463 29.6727 15.4911 29.6727H10.7638L10.7638 24C10.7656 23.8735 10.7419 23.7479 10.6942 23.6307C10.6466 23.5135 10.5759 23.4071 10.4863 23.3178C10.3968 23.2284 10.2902 23.1579 10.173 23.1105C10.0557 23.063 9.93009 23.0396 9.8036 23.0416ZM37.2218 25.8779C36.9714 25.8818 36.7327 25.985 36.5582 26.1646C36.3837 26.3443 36.2877 26.5859 36.2911 26.8363V28.7272L32.5093 28.7272C30.954 28.7272 29.6729 30.0083 29.6729 31.5636L29.6729 36.2909H24.9457C24.8204 36.2891 24.696 36.3122 24.5797 36.359C24.4635 36.4057 24.3576 36.475 24.2684 36.563C24.1792 36.651 24.1083 36.7558 24.06 36.8714C24.0116 36.987 23.9867 37.111 23.9867 37.2363C23.9867 37.3616 24.0116 37.4857 24.06 37.6012C24.1083 37.7168 24.1792 37.8217 24.2684 37.9096C24.3576 37.9976 24.4635 38.067 24.5797 38.1137C24.696 38.1604 24.8204 38.1835 24.9457 38.1818H29.6729V41.0181C29.6729 42.5734 30.954 43.8545 32.5093 43.8545H41.9638C43.5191 43.8545 44.8002 42.5734 44.8002 41.0181V31.5636C44.8002 30.0083 43.5191 28.7272 41.9638 28.7272H38.182V26.8363C38.1837 26.7098 38.1601 26.5843 38.1124 26.4671C38.0647 26.3499 37.9941 26.2435 37.9045 26.1541C37.815 26.0648 37.7084 25.9943 37.5911 25.9468C37.4739 25.8994 37.3483 25.876 37.2218 25.8779ZM32.5093 30.6181L37.0778 30.6181C37.1799 30.635 37.284 30.635 37.3861 30.6181H41.9638C42.498 30.6181 42.9093 31.0294 42.9093 31.5636V41.0181C42.9093 41.5523 42.498 41.9636 41.9638 41.9636H32.5093C31.9751 41.9636 31.5638 41.5523 31.5638 41.0181V37.3951C31.5807 37.293 31.5807 37.1888 31.5638 37.0867L31.5638 31.5636C31.5638 31.0294 31.9751 30.6181 32.5093 30.6181ZM6.03656 31.5636H15.4911C16.0253 31.5636 16.4366 31.9748 16.4366 32.509V41.9636C16.4366 42.4978 16.0253 42.909 15.4911 42.909H6.03656C5.50235 42.909 5.0911 42.4978 5.0911 41.9636V32.509C5.0911 31.9748 5.50235 31.5636 6.03656 31.5636Z" fill="#7FA0E5"/>
</svg>
