<svg width="160" height="40" viewBox="0 0 160 40" fill="none" xmlns="http://www.w3.org/2000/svg">
<g clip-path="url(#clip0)">
<path d="M0.233673 0H7.92989V23.6804H18.0383V27.4004H0.233673V0Z" fill="#010101"/>
<path d="M21.4228 27.4004L30.8942 0H38.5904L48.8231 27.4004H40.2827L37.2788 19.4516H28.0599L25.3953 27.4004H21.4228ZM29.3301 15.7317H36.0539L32.545 6.21879H32.4621L29.3301 15.7317Z" fill="#010101"/>
<path d="M47.3872 0H69.8841V3.71997H62.4856V27.4004H54.7894V3.71997H47.3909V0H47.3872Z" fill="#010101"/>
<path d="M73.8566 27.4004V0H81.5528V11.4614H89.7578V0H97.4541V27.4004H89.7578V15.1814H81.5528V27.4004H73.8566Z" fill="#010101"/>
<path d="M101.344 27.4004L110.815 0H118.511L128.744 27.4004H120.204L117.2 19.4516H107.981L105.316 27.4004H101.344ZM109.251 15.7317H115.975L112.466 6.21879H112.383L109.251 15.7317Z" fill="#010101"/>
<path d="M132.257 0H139.994L146.126 14.3786L152.047 0H159.661V27.4004H151.965V10.0217H151.836L144.604 27.4004H143.673L136.399 10.1913H136.316V27.4004H132.257V0V0Z" fill="#010101"/>
<path d="M121.933 39.0804V34.584H125.114V35.4282H122.891V36.378H125.069V37.2223H122.891V38.2399H125.114V39.0841H121.933V39.0804Z" fill="#010101"/>
<path d="M126.773 38.4472L127.293 37.7198C127.61 38.0515 128.1 38.3266 128.721 38.3266C129.245 38.3266 129.502 38.0854 129.502 37.8291C129.502 37.4974 129.083 37.4032 128.593 37.2826C127.858 37.113 126.916 36.9132 126.916 35.8881C126.916 35.138 127.564 34.5199 128.62 34.5199C129.336 34.5199 129.927 34.7348 130.372 35.1456L129.841 35.8466C129.475 35.5112 128.993 35.3529 128.533 35.3529C128.122 35.3529 127.892 35.5338 127.892 35.8051C127.892 36.0954 128.303 36.1896 128.789 36.3026C129.532 36.4798 130.474 36.7022 130.474 37.7198C130.474 38.5414 129.89 39.1633 128.676 39.1633C127.809 39.1595 127.191 38.8693 126.773 38.4472Z" fill="#010101"/>
<path d="M133.372 39.0804V35.4282H132.057V34.584H135.641V35.4282H134.333V39.0804H133.372Z" fill="#010101"/>
<path d="M136.689 38.6093C136.689 38.3115 136.938 38.0628 137.235 38.0628C137.533 38.0628 137.782 38.3115 137.782 38.6093C137.782 38.907 137.533 39.1558 137.235 39.1558C136.938 39.1558 136.689 38.9032 136.689 38.6093Z" fill="#010101"/>
<path d="M83.5165 34.094H66.7144V39.0804H83.5165V34.094Z" fill="#007559"/>
<path d="M116.619 34.094H100.153V39.0804H116.619V34.094Z" fill="#055943"/>
<path d="M100.153 34.094H83.5164V39.0804H100.153V34.094Z" fill="#02654C"/>
<path d="M66.7144 34.094H50.0782V39.0804H66.7144V34.094Z" fill="#118265"/>
<path d="M50.082 34.094H33.442V39.0804H50.082V34.094Z" fill="#119574"/>
<path d="M33.442 34.094H16.8058V39.0804H33.442V34.094Z" fill="#8DBAA4"/>
<path d="M16.8058 34.094H0V39.0804H16.8058V34.094Z" fill="#CCDCD3"/>
<path d="M142.972 39.0992V35.8165L142.218 36.5853L141.668 36.0087L143.092 34.5765H143.933V39.103H142.972V39.0992Z" fill="black"/>
<path d="M146.059 38.7072L146.485 37.9685C146.729 38.1984 146.986 38.3228 147.385 38.3228C148.132 38.3228 148.52 37.6934 148.52 37.0451C148.52 37.0112 148.52 36.9773 148.52 36.9434C148.301 37.2487 147.849 37.5276 147.351 37.5276C146.537 37.5276 145.81 37.0188 145.81 36.0539C145.81 35.172 146.507 34.5011 147.54 34.5011C148.919 34.5011 149.496 35.5602 149.496 36.8341C149.496 38.206 148.723 39.1746 147.385 39.1746C146.839 39.1746 146.379 38.9899 146.059 38.7072ZM148.516 36.2687C148.475 35.8353 148.23 35.3529 147.6 35.3529C147.076 35.3529 146.794 35.7072 146.794 36.0162C146.794 36.4911 147.208 36.6946 147.627 36.6946C147.973 36.6984 148.297 36.5401 148.516 36.2687Z" fill="black"/>
<path d="M151.282 38.5037L151.818 37.8328C152.123 38.1532 152.545 38.3266 153.02 38.3266C153.555 38.3266 153.86 38.0213 153.86 37.6557C153.86 37.2562 153.563 36.9848 153.046 36.9848C152.673 36.9848 152.368 37.0941 152.096 37.3504L151.426 37.1657V34.5727H154.535V35.4207H152.39V36.525C152.609 36.3064 152.975 36.1443 153.389 36.1443C154.154 36.1443 154.84 36.6946 154.84 37.6105C154.84 38.5678 154.12 39.1784 153.027 39.1784C152.24 39.1821 151.671 38.9221 151.282 38.5037Z" fill="black"/>
<path d="M156.431 38.4547L156.94 37.8102C157.245 38.1344 157.739 38.3266 158.18 38.3266C158.73 38.3266 159.035 38.0891 159.035 37.7499C159.035 37.3919 158.756 37.226 158.127 37.226C157.938 37.226 157.633 37.2336 157.565 37.2411V36.3743C157.648 36.3818 157.957 36.3818 158.127 36.3818C158.628 36.3818 158.967 36.231 158.967 35.8994C158.967 35.5375 158.594 35.3642 158.127 35.3642C157.686 35.3642 157.294 35.5262 156.974 35.8315L156.491 35.2285C156.857 34.8139 157.426 34.5086 158.221 34.5086C159.28 34.5086 159.932 34.9835 159.932 35.7373C159.932 36.3064 159.442 36.6795 158.941 36.77C159.401 36.819 160 37.177 160 37.8555C160 38.6356 159.303 39.1859 158.214 39.1859C157.388 39.1821 156.762 38.8618 156.431 38.4547Z" fill="black"/>
</g>
<defs>
<clipPath id="clip0">
<rect width="160" height="39.1821" fill="white"/>
</clipPath>
</defs>
</svg>
