<svg width="263" height="485" viewBox="0 0 263 485" fill="none" xmlns="http://www.w3.org/2000/svg">
<path d="M45.8584 55H65.012C79.8413 55 91.5803 65.6505 91.5803 85.6605C91.5803 98.8445 86.7906 107.268 79.5537 112.195C79.2979 112.358 79.0894 112.588 78.95 112.862C78.8106 113.136 78.7456 113.443 78.7616 113.752C78.7777 114.061 78.8742 114.359 79.0412 114.616C79.2082 114.874 79.4394 115.08 79.7106 115.213C88.8194 120.619 95 130.468 95 146.202C95 168.605 81.4048 180.999 64.4159 180.999H45.8584C45.6121 181.008 45.3664 180.966 45.1369 180.873C44.9073 180.781 44.6989 180.64 44.5246 180.461C44.3502 180.282 44.2139 180.067 44.124 179.831C44.0341 179.595 43.9925 179.342 44.0021 179.089V57.0656C43.9902 56.8041 44.029 56.5428 44.1161 56.2968C44.2033 56.0509 44.3372 55.8252 44.5099 55.633C44.6826 55.4408 44.8908 55.2859 45.1224 55.1772C45.3539 55.0685 45.6041 55.0083 45.8584 55ZM62.3871 105.692C66.4029 105.375 74.2777 103.003 74.2777 87.7368C74.2777 72.6379 66.4029 70.7337 62.2511 70.7337C61.9974 70.7214 61.7438 70.7611 61.505 70.8505C61.2663 70.9398 61.0472 71.077 60.8604 71.2542C60.6736 71.4313 60.5229 71.6448 60.4169 71.8824C60.311 72.1199 60.2519 72.3767 60.2432 72.6379V103.944C60.3048 104.467 60.5645 104.944 60.9659 105.271C61.3673 105.598 61.878 105.75 62.3871 105.692ZM77.368 144.33C77.368 124.965 67.1768 122.082 62.3871 121.765C62.1313 121.718 61.8688 121.727 61.6168 121.792C61.3648 121.857 61.1289 121.976 60.9246 122.141C60.7203 122.306 60.5521 122.513 60.4311 122.75C60.31 122.986 60.2389 123.246 60.2223 123.513V163.554C60.2174 163.82 60.2672 164.084 60.3684 164.328C60.4697 164.573 60.6201 164.792 60.8098 164.973C60.9994 165.153 61.224 165.29 61.4689 165.375C61.7137 165.459 61.9732 165.49 62.2302 165.464C66.8683 165.437 77.368 164.006 77.368 144.33Z" fill="#CC9A48"/>
<path d="M160 118.159C160 175.49 139.801 182 131.595 182C123.178 182 103 175.963 103 118.159C103 60.032 123.199 54 131.595 54C139.801 54 160 60.5212 160 118.159ZM142.289 118.159C142.289 73.3702 134.672 70.1982 131.568 70.1982C128.144 70.1982 120.69 74.1658 120.69 118.159C120.69 161.829 128.144 165.958 131.568 165.958C134.672 165.958 142.289 162.624 142.289 118.159Z" fill="#CC9A48"/>
<path d="M220.215 180.996H205.262C204.495 180.996 203.571 180.517 203.415 179.725L193.09 140.739C192.782 139.786 191.524 139.624 191.237 140.578L179.837 179.725C179.736 180.104 179.513 180.436 179.205 180.667C178.897 180.898 178.522 181.014 178.142 180.996H165.808C165.523 181.016 165.237 180.96 164.979 180.836C164.72 180.711 164.496 180.521 164.327 180.283C164.158 180.045 164.051 179.767 164.014 179.474C163.977 179.182 164.013 178.885 164.117 178.61L183.531 117.826C184.152 115.754 184.152 113.537 183.531 111.465L166.121 57.5488C165.808 56.116 166.58 55.0011 167.968 55.0011H182.764C183.167 54.9863 183.562 55.1237 183.874 55.3874C184.186 55.651 184.394 56.023 184.46 56.4338L192.808 88.8913C192.959 89.8447 194.373 89.8447 194.66 88.8913L204.051 56.4338C204.117 56.023 204.325 55.651 204.638 55.3874C204.95 55.1237 205.344 54.9863 205.747 55.0011H217.925C219.312 55.0011 220.236 56.116 219.772 57.5488L202.491 111.465C201.876 113.538 201.876 115.754 202.491 117.826L221.911 178.61C221.999 178.885 222.022 179.178 221.979 179.464C221.935 179.75 221.825 180.021 221.659 180.255C221.493 180.488 221.276 180.678 221.024 180.807C220.773 180.936 220.496 181.001 220.215 180.996Z" fill="#CC9A48"/>
<path d="M72 235.594C72 270.083 59.9556 274 55.0442 274C50.0444 274 38 270.373 38 235.594C38 200.627 50.0444 197 55.0442 197C59.9556 197 72 200.911 72 235.594ZM61.4384 235.594C61.4384 208.654 56.9016 206.744 55.0442 206.744C53.0047 206.744 48.5616 209.131 48.5616 235.594C48.5616 261.885 53.0047 264.353 55.0442 264.353C56.9016 264.353 61.4384 262.373 61.4384 235.594Z" fill="#CC9A48"/>
<path d="M89.93 272.999H82.1429C81.9919 273.005 81.8412 272.98 81.7004 272.924C81.5596 272.869 81.4316 272.785 81.3245 272.677C81.2173 272.569 81.1333 272.441 81.0778 272.299C81.0222 272.157 80.9962 272.005 81.0015 271.853V198.249C80.9936 198.091 81.017 197.933 81.0704 197.784C81.1238 197.635 81.206 197.499 81.3123 197.382C81.4186 197.266 81.5468 197.172 81.6894 197.107C81.832 197.041 81.9862 197.005 82.1429 197H105.931C106.235 197.026 106.517 197.171 106.717 197.405C106.916 197.638 107.017 197.941 106.998 198.249V205.628C107.007 205.775 106.987 205.923 106.937 206.061C106.888 206.2 106.811 206.327 106.711 206.435C106.611 206.542 106.49 206.628 106.356 206.686C106.222 206.745 106.077 206.775 105.931 206.774H92.1808C92.0173 206.77 91.8547 206.799 91.7029 206.86C91.551 206.922 91.4132 207.014 91.2978 207.131C91.1824 207.247 91.092 207.387 91.0319 207.54C90.9719 207.694 90.9436 207.858 90.9487 208.023V224.601C90.9458 224.761 90.9763 224.92 91.0384 225.067C91.1005 225.214 91.1928 225.346 91.3091 225.455C91.4255 225.564 91.5632 225.647 91.7134 225.698C91.8637 225.749 92.0229 225.768 92.1808 225.753H99.4026C99.7087 225.77 99.9992 225.894 100.224 226.105C100.449 226.315 100.594 226.598 100.635 226.904V234.461C100.61 234.775 100.47 235.067 100.242 235.28C100.014 235.494 99.7139 235.613 99.4026 235.613H92.1808C92.0287 235.596 91.8747 235.611 91.7285 235.657C91.5823 235.702 91.4471 235.778 91.3314 235.879C91.2157 235.981 91.1219 236.105 91.0561 236.244C90.9902 236.384 90.9537 236.535 90.9487 236.69V271.863C90.9566 272.006 90.9364 272.148 90.8894 272.283C90.8423 272.417 90.7693 272.54 90.6745 272.646C90.5798 272.752 90.4652 272.837 90.3374 272.898C90.2096 272.959 90.0711 272.993 89.93 272.999Z" fill="#CC9A48"/>
<path d="M120.912 272.999H113.14C112.99 273.005 112.839 272.98 112.699 272.924C112.558 272.869 112.43 272.785 112.324 272.677C112.217 272.569 112.133 272.441 112.077 272.299C112.022 272.157 111.996 272.005 112.001 271.853V198.249C111.994 198.091 112.018 197.933 112.072 197.785C112.125 197.636 112.207 197.5 112.313 197.384C112.419 197.268 112.547 197.174 112.689 197.108C112.831 197.042 112.984 197.006 113.14 197H136.933C137.237 197.026 137.518 197.171 137.717 197.405C137.916 197.638 138.017 197.941 137.998 198.249V205.628C138.007 205.775 137.987 205.923 137.937 206.061C137.888 206.2 137.811 206.327 137.711 206.435C137.612 206.542 137.491 206.628 137.357 206.686C137.223 206.745 137.079 206.775 136.933 206.774H123.19C123.026 206.769 122.863 206.798 122.711 206.859C122.559 206.92 122.421 207.011 122.305 207.129C122.189 207.246 122.098 207.385 122.038 207.539C121.978 207.693 121.95 207.858 121.955 208.023V224.601C121.952 224.761 121.982 224.921 122.045 225.068C122.107 225.216 122.2 225.349 122.316 225.457C122.433 225.566 122.571 225.649 122.722 225.7C122.872 225.751 123.032 225.769 123.19 225.753H130.391C130.697 225.77 130.987 225.894 131.211 226.105C131.436 226.315 131.581 226.598 131.621 226.904V234.461C131.597 234.775 131.457 235.067 131.229 235.28C131.001 235.494 130.702 235.613 130.391 235.613H123.19C123.037 235.595 122.883 235.609 122.737 235.655C122.59 235.7 122.455 235.776 122.339 235.877C122.222 235.978 122.128 236.103 122.062 236.243C121.996 236.383 121.96 236.535 121.955 236.69V271.863C121.963 272.008 121.942 272.153 121.893 272.289C121.844 272.425 121.769 272.549 121.672 272.655C121.574 272.761 121.457 272.847 121.326 272.906C121.196 272.965 121.055 272.996 120.912 272.999Z" fill="#CC9A48"/>
<path d="M153.998 198.249V271.853C154.007 272 153.987 272.147 153.937 272.286C153.888 272.425 153.811 272.552 153.711 272.66C153.611 272.767 153.49 272.853 153.356 272.911C153.222 272.969 153.077 272.999 152.931 272.999H145.143C144.992 273.005 144.841 272.98 144.7 272.924C144.559 272.869 144.431 272.785 144.324 272.677C144.217 272.569 144.133 272.441 144.078 272.299C144.022 272.157 143.996 272.005 144.001 271.853V198.249C143.994 198.091 144.018 197.933 144.072 197.785C144.125 197.636 144.208 197.5 144.314 197.384C144.42 197.268 144.548 197.174 144.69 197.108C144.832 197.042 144.986 197.006 145.143 197H152.931C153.235 197.026 153.517 197.171 153.717 197.405C153.916 197.638 154.017 197.941 153.998 198.249Z" fill="#CC9A48"/>
<path d="M179.492 197C184.292 197 189.271 200.219 192.47 206.658C192.558 206.761 192.623 206.883 192.662 207.014C192.7 207.144 192.711 207.282 192.693 207.418C192.675 207.553 192.629 207.683 192.558 207.799C192.486 207.915 192.392 208.014 192.28 208.09L185.786 213.81C185.639 213.918 185.47 213.99 185.291 214.02C185.112 214.049 184.929 214.036 184.756 213.98C184.583 213.925 184.425 213.83 184.295 213.701C184.165 213.573 184.066 213.415 184.007 213.241C182.782 209.228 181.182 206.744 179.487 206.744C177.518 206.744 172.724 210.28 172.724 235.594C172.724 260.812 177.518 264.353 179.487 264.353C181.182 264.353 182.967 261.584 184.287 257.378C184.341 257.199 184.44 257.036 184.573 256.907C184.706 256.777 184.87 256.684 185.049 256.636C185.227 256.588 185.415 256.587 185.593 256.634C185.772 256.68 185.937 256.772 186.071 256.9L192.65 262.534C192.837 262.716 192.957 262.957 192.99 263.217C193.024 263.478 192.969 263.742 192.835 263.967C189.545 270.373 184.281 274 179.482 274C174.408 274 162 269.606 162 235.594C162.026 201.389 174.418 197 179.492 197Z" fill="#CC9A48"/>
<path d="M223.933 272.999H200.135C199.985 273.005 199.835 272.98 199.695 272.924C199.554 272.869 199.427 272.785 199.32 272.677C199.214 272.569 199.13 272.44 199.076 272.299C199.021 272.157 198.995 272.005 199.001 271.853V198.249C198.994 198.091 199.017 197.934 199.07 197.785C199.123 197.637 199.204 197.501 199.31 197.384C199.415 197.268 199.543 197.174 199.684 197.108C199.826 197.042 199.98 197.006 200.135 197H223.933C224.237 197.026 224.518 197.171 224.717 197.405C224.916 197.638 225.017 197.941 224.998 198.249V205.628C225.007 205.775 224.987 205.923 224.937 206.061C224.888 206.2 224.811 206.327 224.711 206.435C224.612 206.542 224.491 206.628 224.357 206.686C224.223 206.745 224.079 206.775 223.933 206.774H210.166C210.002 206.769 209.839 206.798 209.687 206.859C209.535 206.92 209.396 207.011 209.281 207.128C209.165 207.246 209.074 207.385 209.014 207.539C208.954 207.693 208.925 207.858 208.93 208.023V224.601C208.927 224.761 208.958 224.921 209.02 225.068C209.083 225.216 209.175 225.349 209.292 225.457C209.409 225.566 209.547 225.649 209.697 225.7C209.848 225.751 210.008 225.769 210.166 225.753H217.369C217.674 225.77 217.964 225.894 218.189 226.105C218.413 226.315 218.558 226.598 218.598 226.904V234.461C218.574 234.775 218.434 235.067 218.206 235.28C217.979 235.494 217.679 235.613 217.369 235.613H210.166C210.013 235.595 209.859 235.609 209.712 235.655C209.566 235.7 209.43 235.776 209.314 235.877C209.198 235.978 209.104 236.103 209.038 236.243C208.972 236.383 208.935 236.535 208.93 236.69V262.181C208.935 262.335 208.972 262.488 209.038 262.628C209.104 262.767 209.198 262.892 209.314 262.993C209.43 263.094 209.566 263.17 209.712 263.215C209.859 263.261 210.013 263.275 210.166 263.257H223.912C224.201 263.276 224.472 263.406 224.669 263.62C224.867 263.834 224.977 264.116 224.976 264.409V271.885C224.981 272.028 224.958 272.17 224.908 272.304C224.858 272.437 224.783 272.559 224.685 272.663C224.588 272.767 224.472 272.85 224.343 272.907C224.213 272.965 224.074 272.996 223.933 272.999Z" fill="#CC9A48"/>
<path d="M131 485C159.719 485 183 461.047 183 431.5C183 401.953 159.719 378 131 378C102.281 378 79 401.953 79 431.5C79 461.047 102.281 485 131 485Z" fill="#CC9A48"/>
<path d="M51.4781 422.996C51.3802 423.001 51.2821 423.001 51.1842 422.996C50.8617 422.957 50.5497 422.853 50.2662 422.69C49.9827 422.527 49.7332 422.308 49.5319 422.045C49.3306 421.783 49.1815 421.482 49.0932 421.16C49.0049 420.838 48.979 420.501 49.017 420.169C53.8919 377.315 89.3544 345 131.507 345C173.66 345 209.118 377.315 213.992 420.169C214.042 420.827 213.843 421.479 213.436 421.989C213.029 422.498 212.446 422.825 211.809 422.902C211.173 422.978 210.533 422.797 210.023 422.397C209.513 421.998 209.174 421.41 209.076 420.758C204.495 380.477 171.147 350.097 131.507 350.097C91.8679 350.097 58.515 380.477 53.9287 420.758C53.8546 421.375 53.5648 421.942 53.1137 422.354C52.6625 422.766 52.081 422.994 51.4781 422.996Z" fill="#CC9A48"/>
<path d="M195.52 421.867C194.928 421.865 194.355 421.648 193.905 421.256C193.456 420.864 193.158 420.322 193.067 419.727C188.649 389.125 162.19 366.045 131.518 366.045C100.846 366.045 74.3761 389.125 69.9583 419.727C69.9248 420.066 69.8238 420.396 69.6616 420.694C69.4993 420.993 69.2791 421.256 69.0142 421.466C68.7493 421.676 68.4452 421.829 68.1204 421.916C67.7955 422.003 67.4567 422.023 67.1242 421.973C66.7918 421.924 66.4728 421.806 66.1863 421.628C65.8999 421.449 65.652 421.214 65.4577 420.935C65.2634 420.657 65.1267 420.341 65.0559 420.007C64.985 419.674 64.9815 419.329 65.0455 418.994C69.8161 385.931 98.3922 361 131.513 361C164.633 361 193.204 385.931 197.974 418.994C198.021 419.322 198.004 419.657 197.923 419.978C197.843 420.3 197.701 420.603 197.505 420.868C197.31 421.134 197.064 421.358 196.783 421.528C196.502 421.697 196.191 421.809 195.868 421.856C195.753 421.869 195.636 421.873 195.52 421.867Z" fill="#CC9A48"/>
<path d="M16.4753 374C16.086 373.999 15.7024 373.903 15.3566 373.718C15.0663 373.567 14.8079 373.358 14.596 373.103C14.3842 372.848 14.2232 372.553 14.1222 372.234C14.0212 371.915 13.9822 371.578 14.0075 371.244C14.0327 370.909 14.1218 370.583 14.2694 370.284C25.2589 348.009 41.9895 329.291 62.6223 316.186C83.2551 303.081 106.991 296.097 131.222 296.001C155.453 295.905 179.241 302.702 199.97 315.643C220.7 328.585 237.569 347.17 248.723 369.357C248.873 369.655 248.964 369.98 248.991 370.314C249.019 370.648 248.982 370.985 248.884 371.304C248.785 371.623 248.626 371.92 248.417 372.176C248.207 372.432 247.951 372.643 247.662 372.797C247.374 372.951 247.058 373.045 246.735 373.074C246.411 373.102 246.085 373.064 245.775 372.963C245.465 372.861 245.178 372.698 244.93 372.481C244.681 372.265 244.477 372.001 244.327 371.703C233.591 350.351 217.355 332.465 197.405 320.011C177.454 307.556 154.561 301.017 131.241 301.109C107.921 301.202 85.0772 307.925 65.2204 320.537C45.3637 333.15 29.2625 351.165 18.6865 372.602C18.4785 373.023 18.1619 373.376 17.7717 373.622C17.3816 373.869 16.9329 374 16.4753 374Z" fill="#CC9A48"/>
<path d="M25.4786 393C25.1864 393.001 24.8964 392.948 24.6227 392.843C24.3174 392.728 24.0371 392.552 23.7979 392.325C23.5587 392.098 23.3653 391.825 23.2287 391.521C23.0922 391.217 23.0151 390.888 23.002 390.554C22.9889 390.219 23.04 389.885 23.1523 389.571C24.994 384.427 27.1857 379.424 29.7111 374.599C39.5991 355.655 54.2904 339.828 72.2201 328.805C90.1498 317.781 110.647 311.974 131.527 312C179.613 312 223.13 343.086 239.808 389.349C239.937 389.666 240.002 390.007 240 390.351C239.998 390.695 239.928 391.035 239.796 391.35C239.663 391.666 239.469 391.95 239.227 392.187C238.985 392.424 238.699 392.608 238.386 392.728C238.073 392.847 237.74 392.901 237.406 392.885C237.073 392.869 236.746 392.784 236.445 392.635C236.144 392.485 235.876 392.275 235.656 392.016C235.436 391.757 235.269 391.455 235.166 391.128C219.202 346.856 177.554 317.106 131.527 317.106C111.541 317.08 91.9225 322.638 74.7604 333.188C57.5983 343.738 43.5355 358.885 34.0696 377.016C31.6585 381.633 29.5634 386.417 27.7997 391.334C27.624 391.822 27.3074 392.244 26.8926 392.542C26.4777 392.839 25.9843 392.999 25.4786 393Z" fill="#CC9A48"/>
<path d="M39.4773 404C39.2315 404.002 38.9869 403.964 38.7527 403.887C38.4415 403.79 38.152 403.631 37.9009 403.419C37.6498 403.207 37.4419 402.946 37.2892 402.652C37.1365 402.358 37.0421 402.035 37.0112 401.704C36.9803 401.372 37.0136 401.037 37.1092 400.718C49.7111 358.495 88.777 329 132.075 329C175.877 329 213.987 357.667 226.925 400.331C227.08 400.961 226.993 401.627 226.683 402.193C226.373 402.759 225.863 403.182 225.258 403.374C224.653 403.567 223.999 403.515 223.43 403.23C222.861 402.944 222.421 402.446 222.2 401.837C209.918 361.303 173.703 334.057 132.08 334.057C90.9351 334.057 53.8435 362.073 41.8507 402.192C41.6972 402.715 41.3835 403.173 40.956 403.499C40.5285 403.824 40.01 404 39.4773 404Z" fill="#CC9A48"/>
<path d="M227.911 436.997H192.259C191.925 437.013 191.59 436.959 191.277 436.839C190.963 436.718 190.676 436.534 190.434 436.296C190.191 436.059 189.999 435.773 189.867 435.457C189.735 435.141 189.667 434.801 189.667 434.457C189.667 434.114 189.735 433.774 189.867 433.458C189.999 433.142 190.191 432.856 190.434 432.619C190.676 432.381 190.963 432.197 191.277 432.076C191.59 431.956 191.925 431.902 192.259 431.918H223.043C223.654 422.601 227.537 413.828 233.972 407.224C240.407 400.62 248.957 396.634 258.038 396.005V40.9924C248.955 40.3656 240.402 36.3806 233.965 29.7767C227.528 23.1727 223.644 14.3979 223.033 5.07961H39.9567C39.346 14.3962 35.4632 23.1696 29.0283 29.7733C22.5934 36.377 14.0428 40.363 4.96178 40.9924V396.005C14.0447 396.632 22.5978 400.617 29.0349 407.221C35.4719 413.825 39.3562 422.599 39.9672 431.918H70.7564C71.3933 431.948 71.9943 432.229 72.4346 432.702C72.8749 433.175 73.1206 433.803 73.1206 434.457C73.1206 435.112 72.8749 435.74 72.4346 436.214C71.9943 436.686 71.3933 436.967 70.7564 436.997H35.0894V434.433C35.0783 425.564 31.6389 417.06 25.5256 410.789C19.4122 404.517 11.1239 400.988 2.47828 400.977H0V35.999H2.47828C11.1248 35.9876 19.4139 32.4583 25.5274 26.1853C31.641 19.9123 35.0797 11.4078 35.0894 2.53711V0H227.911V2.53711C227.92 11.4078 231.359 19.9123 237.473 26.1853C243.586 32.4583 251.875 35.9876 260.522 35.999H263V400.998H260.522C251.88 401.01 243.595 404.535 237.482 410.802C231.369 417.07 227.927 425.567 227.911 434.433V436.997Z" fill="#CC9A48"/>
<path d="M122.728 401H129.006C129.156 400.996 129.304 401.028 129.44 401.092C129.576 401.157 129.695 401.252 129.788 401.371C129.882 401.491 129.947 401.63 129.978 401.779C130.01 401.928 130.007 402.083 129.97 402.231L120.074 465.179C120.035 465.412 119.917 465.623 119.739 465.773C119.561 465.924 119.335 466.004 119.104 466H111.947C111.715 466.004 111.49 465.924 111.312 465.773C111.134 465.623 111.015 465.412 110.977 465.179L101.006 402.15C100.991 402.009 101.004 401.866 101.045 401.731C101.086 401.595 101.153 401.47 101.244 401.362C101.334 401.255 101.445 401.167 101.57 401.105C101.695 401.042 101.831 401.007 101.97 401H109.049C109.274 401.014 109.489 401.102 109.663 401.249C109.836 401.397 109.959 401.597 110.013 401.821L115.311 443.867C115.311 444.011 115.367 444.148 115.466 444.249C115.565 444.35 115.7 444.407 115.841 444.407C115.981 444.407 116.116 444.35 116.215 444.249C116.314 444.148 116.37 444.011 116.37 443.867L121.758 401.821C121.812 401.596 121.936 401.395 122.11 401.248C122.285 401.1 122.501 401.013 122.728 401Z" fill="black"/>
<path d="M159.129 465.996H152.769C152.49 465.995 152.217 465.908 151.987 465.747C151.756 465.585 151.58 465.355 151.481 465.089L144.719 441.738C144.675 441.585 144.58 441.454 144.449 441.366C144.319 441.279 144.162 441.241 144.007 441.261C143.852 441.28 143.709 441.355 143.603 441.472C143.498 441.59 143.437 441.741 143.431 441.9V465.175C143.417 465.388 143.328 465.589 143.18 465.74C143.031 465.891 142.834 465.982 142.625 465.996H135.809C135.6 465.982 135.403 465.891 135.255 465.74C135.107 465.589 135.018 465.388 135.004 465.175V401.907C134.983 401.689 135.047 401.473 135.182 401.303C135.317 401.133 135.512 401.024 135.725 401H145.063C153.919 401 161 407.643 161 420.999C161 429.769 157.942 435.57 153.432 438.619C153.195 438.772 153.013 438.998 152.911 439.264C152.81 439.53 152.796 439.822 152.87 440.098L160.438 464.382C160.493 464.58 160.5 464.789 160.458 464.99C160.416 465.191 160.327 465.379 160.198 465.538C160.07 465.696 159.905 465.821 159.719 465.9C159.533 465.98 159.33 466.013 159.129 465.996ZM144.401 433.077C146.812 433.077 152.351 432.257 152.351 421.026C152.351 409.883 146.876 409.062 144.401 409.062C144.277 409.047 144.152 409.059 144.034 409.097C143.915 409.135 143.806 409.199 143.714 409.284C143.622 409.369 143.549 409.473 143.5 409.59C143.451 409.706 143.428 409.832 143.431 409.958V432.17C143.458 432.413 143.572 432.636 143.751 432.798C143.93 432.961 144.161 433.05 144.401 433.05V433.077Z" fill="black"/>
</svg>
